<?xml version="1.0" encoding="UTF-8" standalone="no"?>
<!DOCTYPE svg PUBLIC "-//W3C//DTD SVG 1.1//EN"
 "http://www.w3.org/Graphics/SVG/1.1/DTD/svg11.dtd">
<!-- Generated by graphviz version 12.2.1 (20241206.2353)
 -->
<!-- Title: foo Pages: 1 -->
<svg width="136pt" height="188pt"
 viewBox="0.00 0.00 135.53 188.00" xmlns="http://www.w3.org/2000/svg" xmlns:xlink="http://www.w3.org/1999/xlink">
<g id="graph0" class="graph" transform="scale(1 1) rotate(0) translate(4 184)">
<title>foo</title>
<polygon fill="white" stroke="none" points="-4,4 -4,-184 131.53,-184 131.53,4 -4,4"/>
<!-- n3 -->
<g id="node1" class="node">
<title>n3</title>
<ellipse fill="none" stroke="black" cx="63.53" cy="-162" rx="29.64" ry="18"/>
<text text-anchor="middle" x="63.53" y="-157.32" font-family="Times,serif" font-size="14.00">and</text>
</g>
<!-- n1 -->
<g id="node2" class="node">
<title>n1</title>
<ellipse fill="none" stroke="black" cx="27.53" cy="-90" rx="27.53" ry="18"/>
<text text-anchor="middle" x="27.53" y="-85.33" font-family="Times,serif" font-size="14.00">not</text>
</g>
<!-- n3&#45;&#45;n1 -->
<g id="edge1" class="edge">
<title>n3&#45;&#45;n1</title>
<path fill="none" stroke="black" d="M55,-144.41C49.26,-133.25 41.73,-118.6 36,-107.47"/>
</g>
<!-- n2 -->
<g id="node4" class="node">
<title>n2</title>
<ellipse fill="none" stroke="black" cx="100.53" cy="-90" rx="27" ry="18"/>
<text text-anchor="middle" x="100.53" y="-85.33" font-family="Times,serif" font-size="14.00">y</text>
</g>
<!-- n3&#45;&#45;n2 -->
<g id="edge2" class="edge">
<title>n3&#45;&#45;n2</title>
<path fill="none" stroke="black" d="M72.3,-144.41C78.2,-133.25 85.94,-118.6 91.83,-107.47"/>
</g>
<!-- n0 -->
<g id="node3" class="node">
<title>n0</title>
<ellipse fill="none" stroke="black" cx="27.53" cy="-18" rx="27" ry="18"/>
<text text-anchor="middle" x="27.53" y="-13.32" font-family="Times,serif" font-size="14.00">x</text>
</g>
<!-- n1&#45;&#45;n0 -->
<g id="edge3" class="edge">
<title>n1&#45;&#45;n0</title>
<path fill="none" stroke="black" d="M27.53,-71.7C27.53,-60.85 27.53,-46.92 27.53,-36.1"/>
</g>
</g>
</svg>
