<?xml version="1.0" encoding="UTF-8" standalone="no"?>
<!DOCTYPE svg PUBLIC "-//W3C//DTD SVG 1.1//EN"
 "http://www.w3.org/Graphics/SVG/1.1/DTD/svg11.dtd">
<!-- Generated by graphviz version 12.2.1 (20241206.2353)
 -->
<!-- Title: foo Pages: 1 -->
<svg width="148pt" height="188pt"
 viewBox="0.00 0.00 147.85 188.00" xmlns="http://www.w3.org/2000/svg" xmlns:xlink="http://www.w3.org/1999/xlink">
<g id="graph0" class="graph" transform="scale(1 1) rotate(0) translate(4 184)">
<title>foo</title>
<polygon fill="white" stroke="none" points="-4,4 -4,-184 143.85,-184 143.85,4 -4,4"/>
<!-- n3 -->
<g id="node1" class="node">
<title>n3</title>
<ellipse fill="none" stroke="black" cx="72.85" cy="-162" rx="27" ry="18"/>
<text text-anchor="middle" x="72.85" y="-157.32" font-family="Times,serif" font-size="14.00">~</text>
</g>
<!-- n2 -->
<g id="node2" class="node">
<title>n2</title>
<ellipse fill="none" stroke="black" cx="72.85" cy="-90" rx="27" ry="18"/>
<text text-anchor="middle" x="72.85" y="-85.33" font-family="Times,serif" font-size="14.00">.</text>
</g>
<!-- n3&#45;&#45;n2 -->
<g id="edge1" class="edge">
<title>n3&#45;&#45;n2</title>
<path fill="none" stroke="black" d="M72.85,-143.7C72.85,-132.85 72.85,-118.92 72.85,-108.1"/>
</g>
<!-- n0 -->
<g id="node3" class="node">
<title>n0</title>
<ellipse fill="none" stroke="black" cx="33.85" cy="-18" rx="33.85" ry="18"/>
<text text-anchor="middle" x="33.85" y="-13.32" font-family="Times,serif" font-size="14.00">ogre</text>
</g>
<!-- n2&#45;&#45;n0 -->
<g id="edge2" class="edge">
<title>n2&#45;&#45;n0</title>
<path fill="none" stroke="black" d="M63.8,-72.76C57.59,-61.62 49.37,-46.87 43.11,-35.63"/>
</g>
<!-- n1 -->
<g id="node4" class="node">
<title>n1</title>
<ellipse fill="none" stroke="black" cx="112.85" cy="-18" rx="27" ry="18"/>
<text text-anchor="middle" x="112.85" y="-13.32" font-family="Times,serif" font-size="14.00">x</text>
</g>
<!-- n2&#45;&#45;n1 -->
<g id="edge3" class="edge">
<title>n2&#45;&#45;n1</title>
<path fill="none" stroke="black" d="M82.12,-72.76C88.59,-61.46 97.17,-46.44 103.62,-35.15"/>
</g>
</g>
</svg>
