<?xml version="1.0" encoding="UTF-8" standalone="no"?>
<!DOCTYPE svg PUBLIC "-//W3C//DTD SVG 1.1//EN"
 "http://www.w3.org/Graphics/SVG/1.1/DTD/svg11.dtd">
<!-- Generated by graphviz version 12.2.1 (20241206.2353)
 -->
<!-- Title: g Pages: 1 -->
<svg width="219pt" height="260pt"
 viewBox="0.00 0.00 218.79 260.00" xmlns="http://www.w3.org/2000/svg" xmlns:xlink="http://www.w3.org/1999/xlink">
<g id="graph0" class="graph" transform="scale(1 1) rotate(0) translate(4 256)">
<title>g</title>
<polygon fill="white" stroke="none" points="-4,4 -4,-256 214.79,-256 214.79,4 -4,4"/>
<!-- n6 -->
<g id="node1" class="node">
<title>n6</title>
<ellipse fill="none" stroke="black" cx="139" cy="-234" rx="27" ry="18"/>
<text text-anchor="middle" x="139" y="-229.32" font-family="Times,serif" font-size="14.00">+</text>
</g>
<!-- n4 -->
<g id="node2" class="node">
<title>n4</title>
<ellipse fill="none" stroke="black" cx="100" cy="-162" rx="27" ry="18"/>
<text text-anchor="middle" x="100" y="-157.32" font-family="Times,serif" font-size="14.00">.</text>
</g>
<!-- n6&#45;&#45;n4 -->
<g id="edge1" class="edge">
<title>n6&#45;&#45;n4</title>
<path fill="none" stroke="black" d="M129.95,-216.76C123.65,-205.46 115.29,-190.44 109,-179.15"/>
</g>
<!-- n5 -->
<g id="node7" class="node">
<title>n5</title>
<ellipse fill="none" stroke="black" cx="178" cy="-162" rx="32.79" ry="18"/>
<text text-anchor="middle" x="178" y="-157.32" font-family="Times,serif" font-size="14.00">bam</text>
</g>
<!-- n6&#45;&#45;n5 -->
<g id="edge2" class="edge">
<title>n6&#45;&#45;n5</title>
<path fill="none" stroke="black" d="M148.05,-216.76C154.26,-205.62 162.48,-190.87 168.73,-179.63"/>
</g>
<!-- n2 -->
<g id="node3" class="node">
<title>n2</title>
<ellipse fill="none" stroke="black" cx="63" cy="-90" rx="27" ry="18"/>
<text text-anchor="middle" x="63" y="-85.33" font-family="Times,serif" font-size="14.00">.</text>
</g>
<!-- n4&#45;&#45;n2 -->
<g id="edge3" class="edge">
<title>n4&#45;&#45;n2</title>
<path fill="none" stroke="black" d="M91.42,-144.76C85.44,-133.46 77.5,-118.44 71.54,-107.15"/>
</g>
<!-- n3 -->
<g id="node6" class="node">
<title>n3</title>
<ellipse fill="none" stroke="black" cx="137" cy="-90" rx="28.59" ry="18"/>
<text text-anchor="middle" x="137" y="-85.33" font-family="Times,serif" font-size="14.00">baz</text>
</g>
<!-- n4&#45;&#45;n3 -->
<g id="edge4" class="edge">
<title>n4&#45;&#45;n3</title>
<path fill="none" stroke="black" d="M108.58,-144.76C114.47,-133.62 122.27,-118.87 128.21,-107.63"/>
</g>
<!-- n0 -->
<g id="node4" class="node">
<title>n0</title>
<ellipse fill="none" stroke="black" cx="27" cy="-18" rx="27" ry="18"/>
<text text-anchor="middle" x="27" y="-13.32" font-family="Times,serif" font-size="14.00">foo</text>
</g>
<!-- n2&#45;&#45;n0 -->
<g id="edge5" class="edge">
<title>n2&#45;&#45;n0</title>
<path fill="none" stroke="black" d="M54.65,-72.76C48.83,-61.46 41.11,-46.44 35.3,-35.15"/>
</g>
<!-- n1 -->
<g id="node5" class="node">
<title>n1</title>
<ellipse fill="none" stroke="black" cx="100" cy="-18" rx="28.06" ry="18"/>
<text text-anchor="middle" x="100" y="-13.32" font-family="Times,serif" font-size="14.00">bar</text>
</g>
<!-- n2&#45;&#45;n1 -->
<g id="edge6" class="edge">
<title>n2&#45;&#45;n1</title>
<path fill="none" stroke="black" d="M71.58,-72.76C77.56,-61.46 85.5,-46.44 91.46,-35.15"/>
</g>
</g>
</svg>
