<?xml version="1.0" encoding="UTF-8" standalone="no"?>
<!DOCTYPE svg PUBLIC "-//W3C//DTD SVG 1.1//EN"
 "http://www.w3.org/Graphics/SVG/1.1/DTD/svg11.dtd">
<!-- Generated by graphviz version 12.2.1 (20241206.2353)
 -->
<!-- Title: foo Pages: 1 -->
<svg width="278pt" height="404pt"
 viewBox="0.00 0.00 278.00 404.00" xmlns="http://www.w3.org/2000/svg" xmlns:xlink="http://www.w3.org/1999/xlink">
<g id="graph0" class="graph" transform="scale(1 1) rotate(0) translate(4 400)">
<title>foo</title>
<polygon fill="white" stroke="none" points="-4,4 -4,-400 274,-400 274,4 -4,4"/>
<!-- n10 -->
<g id="node1" class="node">
<title>n10</title>
<ellipse fill="none" stroke="black" cx="63" cy="-378" rx="27" ry="18"/>
<text text-anchor="middle" x="63" y="-373.32" font-family="Times,serif" font-size="14.00">**</text>
</g>
<!-- n0 -->
<g id="node2" class="node">
<title>n0</title>
<ellipse fill="none" stroke="black" cx="27" cy="-306" rx="27" ry="18"/>
<text text-anchor="middle" x="27" y="-301.32" font-family="Times,serif" font-size="14.00">1</text>
</g>
<!-- n10&#45;&#45;n0 -->
<g id="edge1" class="edge">
<title>n10&#45;&#45;n0</title>
<path fill="none" stroke="black" d="M54.65,-360.76C48.83,-349.46 41.11,-334.44 35.3,-323.15"/>
</g>
<!-- n9 -->
<g id="node3" class="node">
<title>n9</title>
<ellipse fill="none" stroke="black" cx="99" cy="-306" rx="27" ry="18"/>
<text text-anchor="middle" x="99" y="-301.32" font-family="Times,serif" font-size="14.00">*</text>
</g>
<!-- n10&#45;&#45;n9 -->
<g id="edge2" class="edge">
<title>n10&#45;&#45;n9</title>
<path fill="none" stroke="black" d="M71.35,-360.76C77.17,-349.46 84.89,-334.44 90.7,-323.15"/>
</g>
<!-- n1 -->
<g id="node4" class="node">
<title>n1</title>
<ellipse fill="none" stroke="black" cx="63" cy="-234" rx="27" ry="18"/>
<text text-anchor="middle" x="63" y="-229.32" font-family="Times,serif" font-size="14.00">2</text>
</g>
<!-- n9&#45;&#45;n1 -->
<g id="edge3" class="edge">
<title>n9&#45;&#45;n1</title>
<path fill="none" stroke="black" d="M90.65,-288.76C84.83,-277.46 77.11,-262.44 71.3,-251.15"/>
</g>
<!-- n8 -->
<g id="node5" class="node">
<title>n8</title>
<ellipse fill="none" stroke="black" cx="135" cy="-234" rx="27" ry="18"/>
<text text-anchor="middle" x="135" y="-229.32" font-family="Times,serif" font-size="14.00">+</text>
</g>
<!-- n9&#45;&#45;n8 -->
<g id="edge4" class="edge">
<title>n9&#45;&#45;n8</title>
<path fill="none" stroke="black" d="M107.35,-288.76C113.17,-277.46 120.89,-262.44 126.7,-251.15"/>
</g>
<!-- n2 -->
<g id="node6" class="node">
<title>n2</title>
<ellipse fill="none" stroke="black" cx="98" cy="-162" rx="27" ry="18"/>
<text text-anchor="middle" x="98" y="-157.32" font-family="Times,serif" font-size="14.00">3</text>
</g>
<!-- n8&#45;&#45;n2 -->
<g id="edge5" class="edge">
<title>n8&#45;&#45;n2</title>
<path fill="none" stroke="black" d="M126.42,-216.76C120.44,-205.46 112.5,-190.44 106.54,-179.15"/>
</g>
<!-- n7 -->
<g id="node7" class="node">
<title>n7</title>
<ellipse fill="none" stroke="black" cx="171" cy="-162" rx="28.06" ry="18"/>
<text text-anchor="middle" x="171" y="-157.32" font-family="Times,serif" font-size="14.00">&lt;&lt;</text>
</g>
<!-- n8&#45;&#45;n7 -->
<g id="edge6" class="edge">
<title>n8&#45;&#45;n7</title>
<path fill="none" stroke="black" d="M143.35,-216.76C149.08,-205.62 156.67,-190.87 162.45,-179.63"/>
</g>
<!-- n3 -->
<g id="node8" class="node">
<title>n3</title>
<ellipse fill="none" stroke="black" cx="134" cy="-90" rx="27" ry="18"/>
<text text-anchor="middle" x="134" y="-85.33" font-family="Times,serif" font-size="14.00">4</text>
</g>
<!-- n7&#45;&#45;n3 -->
<g id="edge7" class="edge">
<title>n7&#45;&#45;n3</title>
<path fill="none" stroke="black" d="M162.23,-144.41C156.33,-133.25 148.59,-118.6 142.71,-107.47"/>
</g>
<!-- n6 -->
<g id="node9" class="node">
<title>n6</title>
<ellipse fill="none" stroke="black" cx="207" cy="-90" rx="28.06" ry="18"/>
<text text-anchor="middle" x="207" y="-85.33" font-family="Times,serif" font-size="14.00">==</text>
</g>
<!-- n7&#45;&#45;n6 -->
<g id="edge8" class="edge">
<title>n7&#45;&#45;n6</title>
<path fill="none" stroke="black" d="M179.53,-144.41C185.27,-133.25 192.8,-118.6 198.53,-107.47"/>
</g>
<!-- n4 -->
<g id="node10" class="node">
<title>n4</title>
<ellipse fill="none" stroke="black" cx="171" cy="-18" rx="27" ry="18"/>
<text text-anchor="middle" x="171" y="-13.32" font-family="Times,serif" font-size="14.00">5</text>
</g>
<!-- n6&#45;&#45;n4 -->
<g id="edge9" class="edge">
<title>n6&#45;&#45;n4</title>
<path fill="none" stroke="black" d="M198.47,-72.41C192.73,-61.25 185.2,-46.6 179.47,-35.47"/>
</g>
<!-- n5 -->
<g id="node11" class="node">
<title>n5</title>
<ellipse fill="none" stroke="black" cx="243" cy="-18" rx="27" ry="18"/>
<text text-anchor="middle" x="243" y="-13.32" font-family="Times,serif" font-size="14.00">6</text>
</g>
<!-- n6&#45;&#45;n5 -->
<g id="edge10" class="edge">
<title>n6&#45;&#45;n5</title>
<path fill="none" stroke="black" d="M215.53,-72.41C221.27,-61.25 228.8,-46.6 234.53,-35.47"/>
</g>
</g>
</svg>
