<?xml version="1.0" encoding="UTF-8" standalone="no"?>
<!DOCTYPE svg PUBLIC "-//W3C//DTD SVG 1.1//EN"
 "http://www.w3.org/Graphics/SVG/1.1/DTD/svg11.dtd">
<!-- Generated by graphviz version 12.2.1 (20241206.2353)
 -->
<!-- Title: foo Pages: 1 -->
<svg width="281pt" height="548pt"
 viewBox="0.00 0.00 281.00 548.00" xmlns="http://www.w3.org/2000/svg" xmlns:xlink="http://www.w3.org/1999/xlink">
<g id="graph0" class="graph" transform="scale(1 1) rotate(0) translate(4 544)">
<title>foo</title>
<polygon fill="white" stroke="none" points="-4,4 -4,-544 277,-544 277,4 -4,4"/>
<!-- n14 -->
<g id="node1" class="node">
<title>n14</title>
<ellipse fill="none" stroke="black" cx="112" cy="-522" rx="27" ry="18"/>
<text text-anchor="middle" x="112" y="-517.33" font-family="Times,serif" font-size="14.00">+</text>
</g>
<!-- n12 -->
<g id="node2" class="node">
<title>n12</title>
<ellipse fill="none" stroke="black" cx="76" cy="-450" rx="27" ry="18"/>
<text text-anchor="middle" x="76" y="-445.32" font-family="Times,serif" font-size="14.00">+</text>
</g>
<!-- n14&#45;&#45;n12 -->
<g id="edge1" class="edge">
<title>n14&#45;&#45;n12</title>
<path fill="none" stroke="black" d="M103.65,-504.76C97.83,-493.46 90.11,-478.44 84.3,-467.15"/>
</g>
<!-- n13 -->
<g id="node15" class="node">
<title>n13</title>
<ellipse fill="none" stroke="black" cx="148" cy="-450" rx="27" ry="18"/>
<text text-anchor="middle" x="148" y="-445.32" font-family="Times,serif" font-size="14.00">4</text>
</g>
<!-- n14&#45;&#45;n13 -->
<g id="edge2" class="edge">
<title>n14&#45;&#45;n13</title>
<path fill="none" stroke="black" d="M120.35,-504.76C126.17,-493.46 133.89,-478.44 139.7,-467.15"/>
</g>
<!-- n0 -->
<g id="node3" class="node">
<title>n0</title>
<ellipse fill="none" stroke="black" cx="27" cy="-378" rx="27" ry="18"/>
<text text-anchor="middle" x="27" y="-373.32" font-family="Times,serif" font-size="14.00">1</text>
</g>
<!-- n12&#45;&#45;n0 -->
<g id="edge3" class="edge">
<title>n12&#45;&#45;n0</title>
<path fill="none" stroke="black" d="M64.88,-433.12C56.86,-421.66 46.08,-406.26 38.07,-394.82"/>
</g>
<!-- n11 -->
<g id="node4" class="node">
<title>n11</title>
<ellipse fill="none" stroke="black" cx="125" cy="-378" rx="53.31" ry="18"/>
<text text-anchor="middle" x="125" y="-373.32" font-family="Times,serif" font-size="14.00">func&#45;call</text>
</g>
<!-- n12&#45;&#45;n11 -->
<g id="edge4" class="edge">
<title>n12&#45;&#45;n11</title>
<path fill="none" stroke="black" d="M87.12,-433.12C94.91,-421.98 105.31,-407.13 113.24,-395.8"/>
</g>
<!-- n1 -->
<g id="node5" class="node">
<title>n1</title>
<ellipse fill="none" stroke="black" cx="89" cy="-306" rx="27" ry="18"/>
<text text-anchor="middle" x="89" y="-301.32" font-family="Times,serif" font-size="14.00">foo</text>
</g>
<!-- n11&#45;&#45;n1 -->
<g id="edge5" class="edge">
<title>n11&#45;&#45;n1</title>
<path fill="none" stroke="black" d="M116.29,-360.05C110.54,-348.89 103.06,-334.34 97.39,-323.31"/>
</g>
<!-- n10 -->
<g id="node6" class="node">
<title>n10</title>
<ellipse fill="none" stroke="black" cx="161" cy="-306" rx="27" ry="18"/>
<text text-anchor="middle" x="161" y="-301.32" font-family="Times,serif" font-size="14.00">,</text>
</g>
<!-- n11&#45;&#45;n10 -->
<g id="edge6" class="edge">
<title>n11&#45;&#45;n10</title>
<path fill="none" stroke="black" d="M133.71,-360.05C139.46,-348.89 146.94,-334.34 152.61,-323.31"/>
</g>
<!-- n8 -->
<g id="node7" class="node">
<title>n8</title>
<ellipse fill="none" stroke="black" cx="125" cy="-234" rx="27" ry="18"/>
<text text-anchor="middle" x="125" y="-229.32" font-family="Times,serif" font-size="14.00">,</text>
</g>
<!-- n10&#45;&#45;n8 -->
<g id="edge7" class="edge">
<title>n10&#45;&#45;n8</title>
<path fill="none" stroke="black" d="M152.65,-288.76C146.83,-277.46 139.11,-262.44 133.3,-251.15"/>
</g>
<!-- n9 -->
<g id="node14" class="node">
<title>n9</title>
<ellipse fill="none" stroke="black" cx="197" cy="-234" rx="27" ry="18"/>
<text text-anchor="middle" x="197" y="-229.32" font-family="Times,serif" font-size="14.00">4</text>
</g>
<!-- n10&#45;&#45;n9 -->
<g id="edge8" class="edge">
<title>n10&#45;&#45;n9</title>
<path fill="none" stroke="black" d="M169.35,-288.76C175.17,-277.46 182.89,-262.44 188.7,-251.15"/>
</g>
<!-- n2 -->
<g id="node8" class="node">
<title>n2</title>
<ellipse fill="none" stroke="black" cx="76" cy="-162" rx="27" ry="18"/>
<text text-anchor="middle" x="76" y="-157.32" font-family="Times,serif" font-size="14.00">1</text>
</g>
<!-- n8&#45;&#45;n2 -->
<g id="edge9" class="edge">
<title>n8&#45;&#45;n2</title>
<path fill="none" stroke="black" d="M113.88,-217.12C105.86,-205.66 95.08,-190.26 87.07,-178.82"/>
</g>
<!-- n7 -->
<g id="node9" class="node">
<title>n7</title>
<ellipse fill="none" stroke="black" cx="174" cy="-162" rx="53.31" ry="18"/>
<text text-anchor="middle" x="174" y="-157.32" font-family="Times,serif" font-size="14.00">func&#45;call</text>
</g>
<!-- n8&#45;&#45;n7 -->
<g id="edge10" class="edge">
<title>n8&#45;&#45;n7</title>
<path fill="none" stroke="black" d="M136.12,-217.12C143.91,-205.98 154.31,-191.13 162.24,-179.8"/>
</g>
<!-- n3 -->
<g id="node10" class="node">
<title>n3</title>
<ellipse fill="none" stroke="black" cx="137" cy="-90" rx="28.06" ry="18"/>
<text text-anchor="middle" x="137" y="-85.33" font-family="Times,serif" font-size="14.00">bar</text>
</g>
<!-- n7&#45;&#45;n3 -->
<g id="edge11" class="edge">
<title>n7&#45;&#45;n3</title>
<path fill="none" stroke="black" d="M165.04,-144.05C159.14,-132.89 151.45,-118.34 145.62,-107.31"/>
</g>
<!-- n6 -->
<g id="node11" class="node">
<title>n6</title>
<ellipse fill="none" stroke="black" cx="210" cy="-90" rx="27" ry="18"/>
<text text-anchor="middle" x="210" y="-85.33" font-family="Times,serif" font-size="14.00">,</text>
</g>
<!-- n7&#45;&#45;n6 -->
<g id="edge12" class="edge">
<title>n7&#45;&#45;n6</title>
<path fill="none" stroke="black" d="M182.71,-144.05C188.46,-132.89 195.94,-118.34 201.61,-107.31"/>
</g>
<!-- n4 -->
<g id="node12" class="node">
<title>n4</title>
<ellipse fill="none" stroke="black" cx="174" cy="-18" rx="27" ry="18"/>
<text text-anchor="middle" x="174" y="-13.32" font-family="Times,serif" font-size="14.00">2</text>
</g>
<!-- n6&#45;&#45;n4 -->
<g id="edge13" class="edge">
<title>n6&#45;&#45;n4</title>
<path fill="none" stroke="black" d="M201.65,-72.76C195.83,-61.46 188.11,-46.44 182.3,-35.15"/>
</g>
<!-- n5 -->
<g id="node13" class="node">
<title>n5</title>
<ellipse fill="none" stroke="black" cx="246" cy="-18" rx="27" ry="18"/>
<text text-anchor="middle" x="246" y="-13.32" font-family="Times,serif" font-size="14.00">3</text>
</g>
<!-- n6&#45;&#45;n5 -->
<g id="edge14" class="edge">
<title>n6&#45;&#45;n5</title>
<path fill="none" stroke="black" d="M218.35,-72.76C224.17,-61.46 231.89,-46.44 237.7,-35.15"/>
</g>
</g>
</svg>
